<?xml version="1.0" encoding="UTF-8"?>
<svg width="189px" height="59px" viewBox="0 0 189 59" version="1.1" xmlns="http://www.w3.org/2000/svg" xmlns:xlink="http://www.w3.org/1999/xlink">
    <!-- Generator: Sketch 56.3 (81716) - https://sketch.com -->
    <title>heycar_logo</title>
    <desc>Created with Sketch.</desc>
    <g id="Page-1" stroke="none" stroke-width="1" fill="none" fill-rule="evenodd">
        <g id="heycar_logo">
            <rect id="bg" x="0" y="0" width="189" height="60"></rect>
            <path d="M0.665625,0.376875 L10.77,0.376875 L10.77,18.51 C11.593125,17.23875 12.71625,16.25625 14.139375,15.564375 C15.560625,14.8725 17.169375,14.525625 18.9675,14.525625 C22.2975,14.525625 24.81375,15.564375 26.51625,17.641875 C28.21875,19.719375 29.07,22.75875 29.07,26.76375 L29.07,44.38875 L18.965625,44.38875 L18.965625,28.6725 C18.965625,25.23 17.67375,23.50875 15.091875,23.50875 C13.70625,23.50875 12.64125,23.986875 11.893125,24.94125 C11.143125,25.895625 10.77,27.271875 10.77,29.06625 L10.77,44.390625 L0.665625,44.390625 L0.665625,0.376875 Z" id="Shape" fill="#000000" fill-rule="nonzero"></path>
            <path d="M49.700625,45.286875 C46.183125,45.286875 43.6275,44.6775 41.008125,43.4625 C38.38875,42.2475 36.358125,40.486875 34.91625,38.18625 C33.47625,35.885625 32.75625,33.125625 32.75625,29.90625 C32.75625,26.98875 33.373125,24.369375 34.60875,22.048125 C35.8425,19.72875 37.6125,17.893125 39.913125,16.546875 C42.21375,15.19875 44.88,14.525625 47.911875,14.525625 C52.2525,14.525625 55.704375,15.826875 58.269375,18.4275 C60.8325,21.028125 62.113125,24.556875 62.113125,29.008125 C62.113125,30.31875 62.000625,31.479375 61.7775,32.488125 L42.691875,32.488125 C43.215,34.171875 43.876875,35.300625 45.31875,36.105 C46.75875,36.91125 48.54,37.426875 51.046875,37.426875 C52.655625,37.426875 54.283125,37.258125 55.93125,36.9225 C57.5775,36.586875 58.449375,36.3975 59.720625,35.7975 L62.143125,42.72375 C60.6075,43.434375 57.890625,44.35125 55.888125,44.724375 C53.885625,45.099375 51.8325,45.286875 49.700625,45.286875 Z M52.68375,26.42625 C52.53375,24.93 52.02,23.750625 51.140625,22.89 C50.26125,22.029375 49.12875,21.6 47.745,21.6 C44.900625,21.6 43.160625,23.210625 42.525,26.428125 L52.68375,26.428125 L52.68375,26.42625 Z" id="Shape" fill="#000000" fill-rule="nonzero"></path>
            <path d="M68.863125,58.64625 C67.629375,58.64625 66.421875,58.524375 65.2425,58.280625 C64.063125,58.036875 62.47875,57.5325 61.768125,57.121875 L64.580625,49.08 C65.70375,49.441875 66.09375,49.49625 67.6275,49.49625 C68.97375,49.49625 70.040625,49.149375 70.82625,48.4575 C71.611875,47.765625 72.37875,46.5225 73.126875,44.72625 L74.025,42.64875 L62.805,15.425625 L73.464375,15.425625 L79.41375,32.43375 L84.74625,15.425625 L95.4675,15.425625 L83.34375,45.568125 C81.920625,49.085625 80.54625,51.770625 79.21875,53.623125 C77.89125,55.475625 76.42125,56.775 74.8125,57.525 C73.20375,58.27125 71.221875,58.64625 68.863125,58.64625 Z" id="Shape" fill="#000000" fill-rule="nonzero"></path>
            <path d="M142.996875,45.286875 C140.488125,45.286875 138.24375,44.660625 136.26,43.40625 C134.27625,42.151875 132.705,40.365 131.544375,38.045625 C130.38375,35.72625 129.804375,33.050625 129.804375,30.01875 C129.804375,27.17625 130.365,24.583125 131.488125,22.245 C132.61125,19.906875 134.20125,18.035625 136.258125,16.63125 C138.315,15.22875 140.655,14.525625 143.274375,14.525625 C144.995625,14.525625 146.585625,14.900625 148.04625,15.64875 C149.505,16.39875 150.66375,17.445 151.52625,18.79125 L151.63875,15.42375 L161.124375,15.42375 L161.124375,44.386875 L151.63875,44.386875 L151.52625,41.075625 C150.665625,42.42375 149.495625,43.460625 148.018125,44.191875 C146.5425,44.92125 144.868125,45.286875 142.996875,45.286875 Z M145.7475,36.305625 C147.46875,36.305625 148.87125,35.7075 149.956875,34.509375 C151.0425,33.31125 151.584375,31.7775 151.584375,29.90625 C151.584375,28.036875 151.0425,26.50125 149.956875,25.303125 C148.87125,24.106875 147.46875,23.506875 145.7475,23.506875 C144.02625,23.506875 142.6125,24.106875 141.51,25.303125 C140.405625,26.50125 139.854375,28.035 139.854375,29.90625 C139.854375,31.7775 140.405625,33.31125 141.51,34.509375 C142.6125,35.7075 144.02625,36.305625 145.7475,36.305625 Z" id="Shape" fill="#000000" fill-rule="nonzero"></path>
            <path d="M166.83375,15.42375 L176.656875,15.42375 L176.769375,19.745625 C177.48,18.174375 178.453125,16.966875 179.68875,16.125 C180.924375,15.283125 182.364375,14.863125 184.010625,14.863125 C185.281875,14.863125 187.23,15.3375 188.165625,15.748125 L185.806875,24.751875 C184.80375,24.41625 184.141875,24.2925 182.83125,24.2925 C180.885,24.2925 179.416875,24.9375 178.425,26.229375 C177.433125,27.519375 176.938125,29.439375 176.938125,31.98375 L176.938125,44.38875 L166.83375,44.38875 L166.83375,15.42375 Z" id="Shape" fill="#000000" fill-rule="nonzero"></path>
            <path d="M120.36375,36.193125 C118.0425,36.193125 116.229375,35.641875 114.91875,34.5375 C113.608125,33.435 112.95375,31.89 112.95375,29.90625 C112.95375,27.961875 113.59875,26.42625 114.890625,25.303125 C116.180625,24.181875 117.94875,23.619375 120.195,23.619375 C121.96875,23.619375 124.104375,24.031875 125.788125,24.560625 L128.5425,16.685625 C127.39125,16.115625 125.983125,15.635625 124.291875,15.255 C122.458125,14.8425 120.661875,14.638125 118.903125,14.638125 C115.72125,14.638125 112.91625,15.31125 110.4825,16.659375 C108.04875,18.005625 106.179375,19.84125 104.86875,22.160625 C103.558125,24.481875 102.90375,27.099375 102.90375,30.01875 C102.90375,33.125625 103.58625,35.82 104.95125,38.101875 C106.31625,40.385625 108.208125,42.135 110.62125,43.35 C113.034375,44.566875 115.813125,45.174375 118.955625,45.174375 C120.789375,45.174375 122.595,44.95875 124.3725,44.529375 C125.825625,44.176875 127.11375,43.71375 128.255625,43.149375 L125.56875,35.3625 C123.845625,35.85375 121.92375,36.193125 120.36375,36.193125 Z" id="Shape" fill="#000000" fill-rule="nonzero"></path>
            <rect id="Rectangle-path" fill="#000000" fill-rule="nonzero" transform="translate(145.355062, 53.822062) rotate(90.000000) translate(-145.355062, -53.822062) " x="141.333187" y="12.3423745" width="8.04375" height="82.959375"></rect>
        </g>
    </g>
</svg>