<?xml version="1.0" encoding="utf-8"?>
<!-- Generator: Adobe Illustrator 22.0.1, SVG Export Plug-In . SVG Version: 6.00 Build 0)  -->
<svg version="1.1" id="Ebene_1" xmlns="http://www.w3.org/2000/svg" xmlns:xlink="http://www.w3.org/1999/xlink" x="0px" y="0px"
	 viewBox="0 0 1716 1080" style="enable-background:new 0 0 1716 1080;" xml:space="preserve">
<g>
	<path d="M1105.1,410c0.2,21.3-4,42.3-12.4,61.8c-8.4,19.1-20,36.5-34.5,51.4c-14.8,14.7-32.2,26.4-51.4,34.5
		c-19.6,8.6-40.8,13-62.2,12.9H837.8l53.4-53.8h53.4c14.3,0.1,28.5-2.7,41.8-8c12.8-5.4,24.4-13.4,34.1-23.3
		c9.6-9.9,17.3-21.5,22.9-34.1c11.2-26.4,11.2-56.3,0-82.7c-5.5-12.7-13.4-24.3-23.3-34.1c-9.8-9.8-21.4-17.7-34.1-23.3
		c-13.1-5.3-27.2-8-41.4-8h-53.4l-53.3-53.9h106.8c21.4,0,42.6,4.4,62.2,12.9c19,8.2,36.3,19.9,51,34.5c14.7,14.8,26.6,32.3,35,51.4
		C1101.1,367.7,1105.3,388.7,1105.1,410z"/>
	<path d="M612.5,410l160.6,160.6h-75.4L536.2,410.3l161.4-161h75.4L612.5,410z"/>
	<path d="M30.5,763.3l64.2,64.2h-30L0,763.4L64.7,699h30.2L30.5,763.3z"/>
	<path d="M504.4,763.3c7.4,6.9,11.5,16.7,11.3,26.8c0.1,9.9-3.7,19.3-10.7,26.4c-3.4,3.5-7.5,6.3-12,8.2c-4.6,1.9-9.5,2.9-14.4,2.9
		h-69.8l21.4-21.3h48.2c2.1,0,4.1-0.3,6.1-1.1c2-0.7,3.9-2,5.3-3.6c6.1-6.3,6.1-16.2,0-22.5c-1.4-1.5-3.1-2.7-5-3.6
		c-2.1-0.8-4.3-1.3-6.5-1.3h-47.4v-21.4h47.4c4.3-0.1,8.4-1.9,11.5-4.9c1.4-1.5,2.6-3.2,3.4-5.1c0.9-2,1.3-4.3,1.3-6.5
		c-0.1-4.2-1.7-8.2-4.7-11.3c-1.5-1.6-3.3-2.8-5.3-3.6c-1.9-0.8-4-1.1-6.1-1.1h-48.2l-21.4-21.5h69.5c10.1-0.1,19.7,4,26.7,11.2
		c14.7,14.6,14.8,38.2,0.2,52.9c-0.1,0.1-0.2,0.2-0.2,0.2H504.4z"/>
	<path d="M645,699v21.5h-64.2L559.4,699H645z M622.3,752.7v21.2h-57.4v-21.4L622.3,752.7z M559.4,827.5l21.4-21.3H645v21.5
		L559.4,827.5z"/>
	<path d="M335.4,783l44.2,44.5h-30.4l-63.9-64.4h37.3c5.7,0,11.1-2.4,15-6.5c4.2-3.9,6.6-9.5,6.5-15.3c0.1-5.7-2.3-11.1-6.5-15
		c-3.9-4.1-9.3-6.5-15-6.5h-27.2l-21.2-21.5h48.4c23.6,0,42.7,19.1,42.7,42.7c0.1,8.6-2.4,17.1-7.3,24.2
		C352.7,773.6,344.7,779.8,335.4,783z"/>
	<path d="M739.8,783l44.2,44.5h-30.4l-63.9-64.4h37.3c5.7,0,11.1-2.4,15-6.5c4.2-3.9,6.6-9.5,6.5-15.3c0.1-5.7-2.3-11.1-6.5-15
		c-3.9-4.1-9.3-6.5-15-6.5h-27.2l-21.2-21.5h48.4c23.6,0,42.7,19.1,42.7,42.7c0.1,8.6-2.4,17.1-7.3,24.2
		C757.2,773.6,749.2,779.8,739.8,783z"/>
	<path d="M230.7,718.1c25,24.3,25.6,64.3,1.3,89.4c-0.4,0.4-0.9,0.9-1.3,1.3c-24.6,25-64.9,25.4-89.9,0.7c-0.2-0.2-0.5-0.5-0.7-0.7
		c-25-25.1-24.9-65.8,0.2-90.8c12-11.9,28.2-18.7,45.1-18.7C202.4,699,218.8,705.8,230.7,718.1z M155.1,733.2
		c-16.7,16.6-16.9,43.6-0.3,60.3c8.1,8.1,19.1,12.7,30.6,12.6C209,806.1,228,787,228,763.4c-0.1-23.6-19.2-42.7-42.8-42.6
		C173.8,720.8,163,725.3,155.1,733.2L155.1,733.2z"/>
	<path d="M1022.5,763.3c0.1,8.5-1.6,16.9-5,24.7c-3.4,7.6-8.1,14.6-14,20.5c-5.9,5.9-12.9,10.5-20.5,13.8
		c-7.8,3.4-16.3,5.2-24.9,5.1h-42.7l21.4-21.5h21.4c5.7,0,11.4-1.1,16.7-3.2c5.1-2.2,9.8-5.4,13.7-9.5c3.8-4,6.9-8.6,9.1-13.7
		c4.5-10.6,4.5-22.5,0-33.1c-2.2-5.1-5.4-9.7-9.3-13.7c-3.9-3.9-8.6-7.1-13.7-9.3c-5.2-2.1-10.8-3.2-16.5-3.2h-21.4l-21.4-21.5h42.7
		c8.6,0,17,1.7,24.9,5.1c7.6,3.4,14.6,8.2,20.5,14.1c5.9,5.9,10.6,12.9,14,20.5C1020.9,746.3,1022.6,754.8,1022.5,763.3z"/>
	<polygon points="1064.3,695.9 1064.3,830.6 1088.3,806.5 1088.3,719.7 	"/>
	<polygon points="1298.3,695.9 1298.3,830.6 1322.2,806.5 1322.2,719.7 	"/>
	<path d="M1445.5,699v21.5h-40.9v107h-23.4V699H1445.5z"/>
	<polygon points="1653.1,767.9 1653.1,699 1630.4,699 1630.4,790.7 	"/>
	<polygon points="1630.4,827.5 1716,827.5 1716,806 1651.8,806 	"/>
	<polygon points="1524.2,699 1512.1,723.1 1564.4,827.5 1588.4,827.5 	"/>
	<polygon points="1497.7,751.9 1459.9,827.5 1483.7,827.5 1509.7,775.9 	"/>
	<path d="M1229.2,791.5l21.4,7.1c-2.9,4.4-6.4,8.4-10.3,11.8c-3.9,3.6-8.3,6.6-12.9,9.1c-4.6,2.6-9.5,4.5-14.6,5.8
		c-5.2,1.4-10.6,2.1-16.1,2.1c-35.4,0.1-64.1-28.5-64.2-63.8c-0.1-17.1,6.8-33.6,18.9-45.7c11.8-12.4,28.2-19.3,45.3-19
		c8.6-0.1,17.1,1.6,25.1,5c7.7,3.3,14.6,8.1,20.5,14l-15.4,15.1c-16.5-16.7-43.5-16.9-60.2-0.4c-8.2,8.1-12.7,19.1-12.7,30.5
		c-0.3,23.3,18.4,42.4,41.7,42.7c0.3,0,0.7,0,1,0c6.1,0,12.2-1.2,17.8-3.7C1220.1,799.7,1225.1,796,1229.2,791.5z M1196.9,752.7
		h53.6l-21.4,21.4h-32.4L1196.9,752.7z"/>
	<rect x="150.7" y="660.3" width="21.4" height="21.4"/>
	<rect x="198.8" y="660.3" width="21.4" height="21.4"/>
</g>
</svg>
