<?xml version="1.0" encoding="UTF-8"?>
<svg width="600px" height="169px" viewBox="0 0 600 169" version="1.1" xmlns="http://www.w3.org/2000/svg" xmlns:xlink="http://www.w3.org/1999/xlink">
    <!-- Generator: Sketch 56.3 (81716) - https://sketch.com -->
    <title>OMIO_logo</title>
    <desc>Created with Sketch.</desc>
    <g id="Page-1" stroke="none" stroke-width="1" fill="none" fill-rule="evenodd">
        <g id="OMIO_logo" transform="translate(0.000000, -1.000000)" fill="#000000" fill-rule="nonzero">
            <path d="M443.7,39.21 L407.38,39.21 C406.275431,39.21 405.38,40.1054305 405.38,41.21 L405.38,164.61 C405.38,165.714569 406.275431,166.61 407.38,166.61 L443.7,166.61 C444.804569,166.61 445.7,165.714569 445.7,164.61 L445.7,41.23 C445.7,40.1254305 444.804569,39.23 443.7,39.23" id="Path"></path>
            <path d="M529.44,133.37 C510.13,133.37 499.93,119.06 499.93,102.93 C499.93,86.53 510.13,72.48 529.44,72.48 C548.75,72.48 559.2,86.48 559.2,102.93 C559.2,119.06 548.75,133.37 529.44,133.37 M529.44,35.92 C488.7,35.92 459.13,64.1 459.13,102.92 C459.13,141.74 488.7,169.92 529.44,169.92 C570.99,169.92 600,142.37 600,102.92 C600,63.47 571,35.92 529.44,35.92" id="Shape"></path>
            <path d="M388.81,91 C388.81,59.08 364.49,35.91 330.97,35.91 C315.48,35.91 302.26,43.03 295.42,50.35 C294.916425,50.8957961 294.207618,51.2062331 293.465,51.2062331 C292.722382,51.2062331 292.013575,50.8957961 291.51,50.35 C284.84,43.05 271.61,35.94 255.78,35.94 C222.38,35.94 198.13,59.11 198.13,91.03 L198.13,164.65 C198.13,165.754569 199.025431,166.65 200.13,166.65 L236.59,166.65 C237.694569,166.65 238.59,165.754569 238.59,164.65 L238.59,92.65 C238.59,83.24 244.48,73.72 255.75,73.72 C267.27,73.72 273.3,83.24 273.3,92.65 L273.3,164.65 C273.3,165.754569 274.195431,166.65 275.3,166.65 L311.8,166.65 C312.904569,166.65 313.8,165.754569 313.8,164.65 L313.8,92.65 C313.8,83.24 319.68,73.72 330.95,73.72 C342.48,73.72 348.5,83.24 348.5,92.65 L348.5,164.65 C348.5,165.754569 349.395431,166.65 350.5,166.65 L386.8,166.65 C387.904569,166.65 388.8,165.754569 388.8,164.65 L388.81,91 Z" id="Path"></path>
            <path d="M116.35,133.37 C97.04,133.37 86.6,119.06 86.6,102.93 C86.6,86.53 97.04,72.48 116.35,72.48 C135.66,72.48 145.86,86.48 145.86,102.93 C145.86,119.06 135.66,133.37 116.35,133.37 M116.35,35.92 C74.81,35.92 45.79,63.47 45.79,102.92 C45.79,142.37 74.79,169.92 116.35,169.92 C157.09,169.92 186.66,141.74 186.66,102.92 C186.66,64.1 157.09,35.92 116.35,35.92" id="Shape"></path>
            <path d="M30,1 C45.2134333,0.873006734 57.9386592,12.524337 59.15,27.69 C60.4698856,43.8501486 48.4661401,58.031921 32.31,59.4 C31.42,59.48 30.53,59.5205287 29.65,59.5205287 C14.3884123,59.6106147 1.57915574,48.041943 0.12,32.85 C-1.31,16.51 10.59,2.57 27.21,1.12 C28.13,1 29.05,1 30,1" id="Path"></path>
        </g>
    </g>
</svg>